<svg xmlns="http://www.w3.org/2000/svg" xmlns:xlink="http://www.w3.org/1999/xlink" viewBox="0 0 274.31 205.21"><defs><style>.cls-1{fill:none;}.cls-2{clip-path:url(#clip-path);}.cls-3{fill:#6d6e71;}.cls-4{fill:#a7a9ac;}.cls-5{fill:#f9ed32;}</style><clipPath id="clip-path" transform="translate(-4.58 -39.13)"><rect class="cls-1" width="283.46" height="283.46"/></clipPath></defs><title>imglogo_square</title><g id="Layer_2" data-name="Layer 2"><g id="Layer_1-2" data-name="Layer 1"><g class="cls-2"><path class="cls-3" d="M278.07,50.08H241.28V40a.88.88,0,0,0-.89-.88H227.72a.87.87,0,0,0-.88.88V50.08H190a.82.82,0,0,0-.81.82v5.34a.82.82,0,0,0,.81.82h7.33c-14.73,30.4-39.87,50.52-42.17,52.33,29.44-20.25,44-52.33,44-52.33H208l17,12.88a167.15,167.15,0,0,1-35,39.46c17-11.72,29.1-27.41,36.23-38.54l.56.43V111c-1.81,1.62-3,2.61-3.32,2.88,1.12-.76,2.23-1.56,3.32-2.38v132a.88.88,0,0,0,.88.89h12.67a.89.89,0,0,0,.89-.89V98.68a187.77,187.77,0,0,0,30-41.62h6.77a.82.82,0,0,0,.82-.82V50.9a.82.82,0,0,0-.82-.82m-51.23,16-12-9.07h12Zm26.44-9.07-12,9.07V57.06Zm-12,39.72V71.28l18.81-14.22h9.38c-7.55,15.6-18.73,29.55-28.19,39.72" transform="translate(-4.58 -39.13)"/><path class="cls-4" d="M223.23,156.59,205.78,176l-4.85-4.36v72.72H28.33V172.1L23,177.44,4.58,156.59l33.07-25.78V108.36a4,4,0,0,1,4-4H54.3a4,4,0,0,1,4,4v6.34l53.87-42Z" transform="translate(-4.58 -39.13)"/><path class="cls-5" d="M118.89,183h-9.17v4.58h9.17a2.29,2.29,0,1,0,0-4.58" transform="translate(-4.58 -39.13)"/><path class="cls-5" d="M114.77,189.16h-5v4.58h5a2.29,2.29,0,0,0,0-4.58" transform="translate(-4.58 -39.13)"/><path class="cls-5" d="M117.91,128.32v6.24a13.86,13.86,0,1,1-15.53-.57v-6.05a19.26,19.26,0,1,0,15.53.38" transform="translate(-4.58 -39.13)"/><path class="cls-5" d="M137.34,145.74a27.61,27.61,0,0,1-13.81,23.92h0c-.55.48-2,4.16-3.06,7a2.29,2.29,0,0,1-.08,4.57H109.72v-4.58h7c.47-1.78,1.13-3.65,1.48-4.58a27.62,27.62,0,0,1-8.48,1.33V168a22.23,22.23,0,0,0,2.65-44.3v17.49h-5.3v-23h2.65a25.84,25.84,0,0,1,2.65.13,27.62,27.62,0,0,1,25,27.49" transform="translate(-4.58 -39.13)"/><path class="cls-5" d="M37.65,222V200.41h4.72a30.94,30.94,0,0,1,6.49.46,8.67,8.67,0,0,1,3.28,1.56A9,9,0,0,1,55,206.09a14,14,0,0,1,0,10.19,9.08,9.08,0,0,1-2.84,3.66,8.87,8.87,0,0,1-3.21,1.55,24.55,24.55,0,0,1-5.61.46H37.65Zm3.5-3.16h3a15,15,0,0,0,3.64-.33,5.23,5.23,0,0,0,2.11-1.08,6.61,6.61,0,0,0,1.83-2.6,11,11,0,0,0,0-7.23A6.51,6.51,0,0,0,49.85,205a5.38,5.38,0,0,0-2.19-1.09,17.25,17.25,0,0,0-4-.33H41.15Z" transform="translate(-4.58 -39.13)"/><path class="cls-5" d="M82.05,211.22a11.06,11.06,0,0,1-3.37,8,11.91,11.91,0,0,1-3.76,2.45,11.44,11.44,0,0,1-4.38.86,11.74,11.74,0,0,1-4.44-.86,11.51,11.51,0,0,1-3.73-2.45,11.33,11.33,0,0,1-2.5-12.35,11.15,11.15,0,0,1,2.5-3.67,11.62,11.62,0,0,1,3.74-2.44,11.7,11.7,0,0,1,12.57,2.44,11.22,11.22,0,0,1,2.5,3.69,11,11,0,0,1,.87,4.33m-3.65,0a8.15,8.15,0,0,0-.6-3.1,8.24,8.24,0,0,0-1.71-2.62,7.68,7.68,0,0,0-5.55-2.35,7.86,7.86,0,0,0-7.28,5,8.2,8.2,0,0,0,1.7,8.81,7.67,7.67,0,0,0,5.58,2.35,7.57,7.57,0,0,0,3-.6,7.84,7.84,0,0,0,2.56-1.75,8.31,8.31,0,0,0,1.71-2.61,8.1,8.1,0,0,0,.6-3.09" transform="translate(-4.58 -39.13)"/><polygon class="cls-5" points="81.48 182.82 81.48 161.28 84.99 161.28 84.99 170.2 92.73 161.28 97.01 161.28 88.47 170.86 98.03 182.82 93.51 182.82 84.99 171.81 84.99 182.82 81.48 182.82"/><polygon class="cls-5" points="100.17 182.82 100.17 161.28 103.67 161.28 103.67 170.2 111.42 161.28 115.7 161.28 107.16 170.86 116.71 182.82 112.19 182.82 103.67 171.81 103.67 182.82 100.17 182.82"/><path class="cls-5" d="M144.45,211.22a11,11,0,0,1-3.37,8,12,12,0,0,1-3.75,2.45,11.44,11.44,0,0,1-4.38.86,11.74,11.74,0,0,1-4.44-.86,11.51,11.51,0,0,1-3.73-2.45,11,11,0,0,1-3.36-8,11.09,11.09,0,0,1,3.36-8,11.52,11.52,0,0,1,3.74-2.44,12,12,0,0,1,8.83,0,11.58,11.58,0,0,1,3.73,2.44,11.25,11.25,0,0,1,2.51,3.69,11,11,0,0,1,.86,4.33m-3.65,0a8.34,8.34,0,0,0-.59-3.1,8.1,8.1,0,0,0-1.72-2.62,7.45,7.45,0,0,0-2.52-1.74,7.62,7.62,0,0,0-3-.61,7.67,7.67,0,0,0-5.58,2.35,7.68,7.68,0,0,0-1.71,2.61,8.47,8.47,0,0,0,0,6.21,7.94,7.94,0,0,0,1.71,2.6,7.56,7.56,0,0,0,2.54,1.75,7.81,7.81,0,0,0,3,.6,7.66,7.66,0,0,0,5.54-2.35,8.17,8.17,0,0,0,1.72-2.61,8.28,8.28,0,0,0,.59-3.09" transform="translate(-4.58 -39.13)"/><path class="cls-5" d="M148.38,200.41h3.46v13.08a6.28,6.28,0,0,0,1.35,4.38,6.25,6.25,0,0,0,8,0,6.28,6.28,0,0,0,1.35-4.38V200.41h3.5v13.4q0,4.38-2.21,6.54t-6.65,2.18c-3,0-5.17-.73-6.64-2.17s-2.19-3.62-2.19-6.55Z" transform="translate(-4.58 -39.13)"/><path class="cls-5" d="M170.9,222V199.56l13.68,13.17c.37.37.75.77,1.13,1.19s.79.89,1.21,1.43V200.41h3.24v22.38l-14-13.4c-.37-.37-.73-.75-1.08-1.15a15.41,15.41,0,0,1-1-1.27v15Z" transform="translate(-4.58 -39.13)"/><polygon class="cls-5" points="61 192.88 64.62 192.88 64.62 193.81 59.31 193.81 59.31 186.36 61 186.36 61 192.88"/><polygon class="cls-5" points="79.86 186.36 84.93 186.36 84.93 187.29 81.55 187.29 81.55 189.46 84.37 189.46 84.37 190.39 81.55 190.39 81.55 192.88 84.98 192.88 84.98 193.81 79.86 193.81 79.86 186.36"/><path class="cls-5" d="M110.07,232.53q0,.08-.57.27a5.52,5.52,0,0,1-1.41.21,3.26,3.26,0,0,1-2.71-1,5,5,0,0,1-.76-3.06,5.54,5.54,0,0,1,.34-1.88,2.43,2.43,0,0,1,1-1.2,3.7,3.7,0,0,1,1.88-.44,7,7,0,0,1,1.27.11,7.82,7.82,0,0,1,.81.18l.32,1.26a5.73,5.73,0,0,0-.74-.36,3.56,3.56,0,0,0-1.29-.21,1.38,1.38,0,0,0-1.39.72,4.1,4.1,0,0,0-.36,1.82,9.31,9.31,0,0,0,.1,1.48,2.44,2.44,0,0,0,.42,1.1,1.18,1.18,0,0,0,1,.49,4.25,4.25,0,0,0,1.23-.14,2.64,2.64,0,0,0,.76-.31,1.19,1.19,0,0,0,.24-.17h0Z" transform="translate(-4.58 -39.13)"/><polygon class="cls-5" points="122.59 187.29 120.55 187.29 120.55 186.36 126.33 186.36 126.33 187.29 124.28 187.29 124.28 193.81 122.59 193.81 122.59 187.29"/><path class="cls-5" d="M150,229.63l2.13,3.31h-2l-2.29-4h1.33c.89,0,1.35-.39,1.37-1.17a1.46,1.46,0,0,0-.31-1,1.06,1.06,0,0,0-.84-.36h-1.52v6.52H146.2v-7.45h3.42c1.67,0,2.5.72,2.5,2.16a1.82,1.82,0,0,1-.51,1.32,2.26,2.26,0,0,1-1.05.57,3.16,3.16,0,0,1-.54.1h0" transform="translate(-4.58 -39.13)"/><rect class="cls-5" x="162.89" y="186.36" width="1.69" height="7.45"/><path class="cls-5" d="M190,232.53q0,.08-.57.27A5.52,5.52,0,0,1,188,233a3.22,3.22,0,0,1-2.7-1,4.88,4.88,0,0,1-.77-3.06,5.54,5.54,0,0,1,.34-1.88,2.43,2.43,0,0,1,1-1.2,3.7,3.7,0,0,1,1.88-.44,6.91,6.91,0,0,1,1.27.11,7.82,7.82,0,0,1,.81.18l.32,1.26a5.73,5.73,0,0,0-.74-.36,3.56,3.56,0,0,0-1.29-.21,1.39,1.39,0,0,0-1.39.72,4.1,4.1,0,0,0-.36,1.82,10.66,10.66,0,0,0,.1,1.48,2.44,2.44,0,0,0,.42,1.1,1.2,1.2,0,0,0,.95.49,4.25,4.25,0,0,0,1.23-.14,2.52,2.52,0,0,0,.76-.31,1.19,1.19,0,0,0,.24-.17h0Z" transform="translate(-4.58 -39.13)"/><rect class="cls-5" x="40.58" y="189.46" width="2.75" height="0.92"/><path class="cls-5" d="M190.16,233.76v.31H40.23a2.58,2.58,0,0,1-.33-5.13,1.21,1.21,0,0,1,1.19-1,.91.91,0,0,1,.23,0,3.69,3.69,0,0,1,3.44-2.47h3.71v.93H44.81V232h3.71v.93H44.76a3.73,3.73,0,0,1-3.5-2.61l-.17,0a1.19,1.19,0,0,1-1.2-1.11,2.27,2.27,0,0,0,.34,4.52Z" transform="translate(-4.58 -39.13)"/></g></g></g></svg>